<svg width="1200" height="920" viewBox="0 0 1200 920" fill="none" xmlns="http://www.w3.org/2000/svg">
  <rect width="1200" height="920" rx="48" fill="#0B121A"/>
  <circle cx="252" cy="192" r="186" fill="url(#paint0_radial)" fill-opacity="0.82"/>
  <circle cx="982" cy="166" r="170" fill="url(#paint1_radial)" fill-opacity="0.58"/>
  <circle cx="1010" cy="770" r="248" fill="url(#paint2_radial)" fill-opacity="0.3"/>
  <rect x="108" y="120" width="984" height="680" rx="36" fill="#111B27" stroke="rgba(255,255,255,0.08)"/>
  <rect x="148" y="170" width="420" height="520" rx="28" fill="#0D1722" stroke="rgba(255,255,255,0.08)"/>
  <rect x="180" y="214" width="194" height="18" rx="9" fill="#F59E0B"/>
  <rect x="180" y="252" width="314" height="14" rx="7" fill="rgba(239,244,251,0.94)"/>
  <rect x="180" y="282" width="276" height="10" rx="5" fill="rgba(154,167,184,0.85)"/>
  <rect x="180" y="322" width="128" height="10" rx="5" fill="rgba(154,167,184,0.72)"/>
  <rect x="180" y="344" width="286" height="12" rx="6" fill="rgba(239,244,251,0.88)"/>
  <rect x="180" y="374" width="334" height="12" rx="6" fill="rgba(239,244,251,0.88)"/>
  <rect x="180" y="404" width="246" height="12" rx="6" fill="rgba(239,244,251,0.88)"/>
  <rect x="180" y="454" width="162" height="10" rx="5" fill="rgba(154,167,184,0.72)"/>
  <rect x="180" y="476" width="302" height="12" rx="6" fill="rgba(239,244,251,0.88)"/>
  <rect x="180" y="506" width="320" height="12" rx="6" fill="rgba(239,244,251,0.88)"/>
  <rect x="180" y="536" width="272" height="12" rx="6" fill="rgba(239,244,251,0.88)"/>
  <rect x="180" y="588" width="198" height="48" rx="18" fill="rgba(245,158,11,0.18)" stroke="rgba(245,158,11,0.4)"/>
  <rect x="620" y="170" width="432" height="520" rx="28" fill="#F7F8FB"/>
  <rect x="654" y="214" width="170" height="16" rx="8" fill="#111B27"/>
  <rect x="654" y="252" width="180" height="10" rx="5" fill="#5C697A"/>
  <rect x="654" y="282" width="270" height="42" rx="16" fill="#E9EDF4"/>
  <rect x="684" y="298" width="180" height="10" rx="5" fill="#111B27"/>
  <rect x="654" y="352" width="112" height="10" rx="5" fill="#7B8797"/>
  <rect x="654" y="374" width="312" height="14" rx="7" fill="#111B27"/>
  <rect x="654" y="406" width="236" height="10" rx="5" fill="#7B8797"/>
  <rect x="654" y="438" width="112" height="10" rx="5" fill="#7B8797"/>
  <rect x="654" y="460" width="348" height="14" rx="7" fill="#111B27"/>
  <rect x="654" y="492" width="284" height="10" rx="5" fill="#7B8797"/>
  <rect x="654" y="544" width="362" height="86" rx="22" fill="#FFF3D9"/>
  <rect x="684" y="570" width="222" height="12" rx="6" fill="#111B27"/>
  <rect x="684" y="596" width="186" height="10" rx="5" fill="#5C697A"/>
  <rect x="754" y="726" width="204" height="16" rx="8" fill="rgba(245,158,11,0.24)"/>
  <defs>
    <radialGradient id="paint0_radial" cx="0" cy="0" r="1" gradientUnits="userSpaceOnUse" gradientTransform="translate(252 192) rotate(90) scale(186)">
      <stop stop-color="#F59E0B"/>
      <stop offset="1" stop-color="#F59E0B" stop-opacity="0"/>
    </radialGradient>
    <radialGradient id="paint1_radial" cx="0" cy="0" r="1" gradientUnits="userSpaceOnUse" gradientTransform="translate(982 166) rotate(90) scale(170)">
      <stop stop-color="#3B82F6"/>
      <stop offset="1" stop-color="#3B82F6" stop-opacity="0"/>
    </radialGradient>
    <radialGradient id="paint2_radial" cx="0" cy="0" r="1" gradientUnits="userSpaceOnUse" gradientTransform="translate(1010 770) rotate(90) scale(248)">
      <stop stop-color="#94A3B8"/>
      <stop offset="1" stop-color="#94A3B8" stop-opacity="0"/>
    </radialGradient>
  </defs>
</svg>
